<?xml version="1.0" encoding="UTF-8"?>
<svg version="1.1" xmlns="http://www.w3.org/2000/svg" width="16" height="16">
<path d="M0 0 C1.44203037 0.09067534 2.8801533 0.24761443 4.3125 0.4375 C7.28888154 0.82615147 9.97302279 1 13 1 C13.08090971 2.62418745 13.13914995 4.24951745 13.1875 5.875 C13.22230469 6.77992187 13.25710938 7.68484375 13.29296875 8.6171875 C13.19628906 9.40351563 13.09960938 10.18984375 13 11 C10.00261059 12.99825961 9.36652492 13.27550398 6 13.25 C5.319375 13.25515625 4.63875 13.2603125 3.9375 13.265625 C2 13 2 13 -1 11 C-1.328125 8.65234375 -1.328125 8.65234375 -1.25 5.9375 C-1.23453125 5.03902344 -1.2190625 4.14054688 -1.203125 3.21484375 C-1 1 -1 1 0 0 Z " fill="#A9765C" transform="translate(2,2)"/>
<path d="M0 0 C0 0.99 0 1.98 0 3 C-0.99 2.67 -1.98 2.34 -3 2 C-3 1.34 -3 0.68 -3 0 C-3.66 0 -4.32 0 -5 0 C-5.33 0.99 -5.66 1.98 -6 3 C-6.66 3 -7.32 3 -8 3 C-8 2.01 -8 1.02 -8 0 C-5.13822943 -1.43088528 -3.06624227 -0.59991697 0 0 Z " fill="#DCA56D" transform="translate(12,10)"/>
</svg>
